<?xml version="1.0" encoding="utf-8"?>
<!-- Generator: Adobe Illustrator 19.2.1, SVG Export Plug-In . SVG Version: 6.00 Build 0)  -->
<svg version="1.1" id="Layer_1" xmlns="http://www.w3.org/2000/svg" xmlns:xlink="http://www.w3.org/1999/xlink" x="0px" y="0px"
	 viewBox="0 0 612 167.3" style="enable-background:new 0 0 612 167.3;" xml:space="preserve">
<style type="text/css">
	.st0{opacity:0.8;}
	.st1{fill:#FFFFFF;}
	.st2{opacity:0.8;fill:#FFFFFF;enable-background:new    ;}
	.st3{fill:#3E6FAB;}
	.st4{fill:#DD9B31;}
	.st5{enable-background:new    ;}
</style>
<g>
	<g class="st0">
		<g>
			<path class="st1" d="M-1032.6-415.5c-3.9,0-7.1-3.2-7.1-7.1v-84.9c0-3.9,3.2-7.1,7.1-7.1s7.1,3.2,7.1,7.1v84.9
				C-1025.5-418.7-1028.7-415.5-1032.6-415.5z"/>
		</g>
	</g>
	<g class="st0">
		<path class="st1" d="M-1018.4-451.7c-1.8,0-3.6-0.7-4.9-2c-2.8-2.7-2.9-7.2-0.2-10.1l18.9-18c2.7-2.8,7.2-2.9,10.1-0.2
			c2.8,2.7,2.9,7.2,0.2,10.1l-18.9,18C-1014.6-452.5-1016.5-451.7-1018.4-451.7z"/>
	</g>
	<g class="st0">
		<path class="st1" d="M-989.3-415.5c-2.1,0-4.1-0.9-5.5-2.6l-29-36.3c-2.5-3-2.1-7.5,1-10c3-2.5,7.5-2.1,10,1l29,36.3
			c2.5,3,2,7.5-1,10C-986.1-416-987.7-415.5-989.3-415.5z"/>
	</g>
	<g class="st0">
		<g>
			<g>
				<path class="st1" d="M-813.4-415.5c-2.9,0-5.6-1.8-6.7-4.7l-20.6-53.9c-1.3-3.7,0.6-7.8,4.3-9.1c3.7-1.3,7.8,0.6,9.1,4.3
					l20.6,53.9c1.3,3.7-0.6,7.8-4.3,9.1C-811.8-415.6-812.6-415.5-813.4-415.5z"/>
			</g>
		</g>
	</g>
	<g class="st0">
		<g>
			<g>
				<path class="st1" d="M-813.4-415.5c2.9,0,5.6-1.8,6.7-4.7l20.6-53.9c1.3-3.7-0.6-7.8-4.3-9.1c-3.7-1.3-7.8,0.6-9.1,4.3
					l-20.6,53.9c-1.3,3.7,0.6,7.8,4.3,9.1C-815-415.6-814.2-415.5-813.4-415.5z"/>
			</g>
		</g>
	</g>
	<g class="st0">
		<g>
			<g>
				<path class="st1" d="M-772.1-415.5c-2.9,0-5.6-1.8-6.7-4.7l-20.6-53.9c-1.3-3.7,0.6-7.8,4.3-9.1c3.7-1.3,7.8,0.6,9.1,4.3
					l20.6,53.9c1.3,3.7-0.6,7.8-4.3,9.1C-770.5-415.6-771.3-415.5-772.1-415.5z"/>
			</g>
		</g>
	</g>
	<g class="st0">
		<g>
			<g>
				<path class="st1" d="M-772.1-415.5c2.9,0,5.6-1.8,6.7-4.7l20.6-53.9c1.3-3.7-0.6-7.8-4.3-9.1c-3.7-1.3-7.8,0.6-9.1,4.3
					l-20.6,53.9c-1.3,3.7,0.6,7.8,4.3,9.1C-773.8-415.6-772.9-415.5-772.1-415.5z"/>
			</g>
		</g>
	</g>
	<g class="st0">
		<g>
			<path class="st1" d="M-922.5-415.5c-3.9,0-7.1-3.2-7.1-7.1v-28c0-3.9,3.2-7.1,7.1-7.1c3.9,0,7.1,3.2,7.1,7.1v28
				C-915.4-418.6-918.5-415.5-922.5-415.5z"/>
		</g>
	</g>
	<g class="st0">
		<g>
			<path class="st1" d="M-970.9-415.6c-3.9,0-7.1-3.2-7.1-7.1v-28c0-3.9,3.2-7.1,7.1-7.1c3.9,0,7.1,3.2,7.1,7.1v28
				C-963.8-418.8-967-415.6-970.9-415.6z"/>
		</g>
	</g>
	<path class="st2" d="M-915.4-451.2c0.3-8.2-2.4-16-7.8-22.2c-5.5-6.3-13.2-10.1-21.5-10.6c-17.3-1.1-32.1,12.3-33.1,29.6
		c-0.1,1.1-0.1,2.1,0,3.1c0,0.2,0,0.5,0,0.8c0,4,3.2,7.3,7.2,7.3s7-3.4,7-7.4c0,0,0-2,0-3c0.5-9,8.1-15.8,17-15.8c0.3,0,0.7,0,1.1,0
		c4.5,0.3,8.6,2.3,11.6,5.7s4.7,7.8,4.4,12.3c0,0.3,0,0.9,0,0.9c0,4,3,7.3,7,7.3s7.2-3.2,7.2-7.3
		C-915.4-450.7-915.4-451-915.4-451.2z"/>
	<path class="st3" d="M-655.5-500.6c-9.5-9.1-22-13.9-35.2-13.6c-1,0-2,0.1-3,0.2c-20.9,1.8-38,16.5-43.3,35.9
		c-0.2,0.8-1.2,4.5-1.3,6.5l0,0c-0.1,0.5-0.1,1.1-0.1,1.7c0.3,4,3.8,6.9,7.8,6.6c3.6-0.3,6.3-3.2,6.6-6.6
		c2.3-15.7,15.1-28.3,31.4-29.6c0.7-0.1,1.4-0.1,2.2-0.1c9.3-0.2,18.1,3.2,24.8,9.6s10.5,15,10.8,24.3c0.3,12.7-6.3,24.1-16.5,30.4
		l0,0c-2,1.4-3.2,3.8-2.9,6.4c0.3,4,3.8,6.9,7.8,6.6c1.1-0.1,2.1-0.4,3-0.9l0,0c0.1,0,0.1-0.1,0.2-0.1c0.1-0.1,0.3-0.2,0.4-0.2
		c1.7-1.1,3-2.1,3-2.1c12.2-9.3,19.9-24.1,19.6-40.4C-640.6-479.3-646-491.6-655.5-500.6z"/>
	<g class="st0">
		<path class="st4" d="M-671.3-435.4L-671.3-435.4L-671.3-435.4z"/>
		<path class="st1" d="M-659.8-430.2c-0.3-4-3.8-7-7.8-6.6c-1.4,0.1-2.6,0.6-3.7,1.4l0,0c-4.5,2.8-9.7,4.6-15.2,5
			c-0.7,0.1-1.4,0.1-2.2,0.1c-19.2,0.5-35.1-14.8-35.6-33.9c0-1.8,0.2-4.4,0.2-5c0.1-0.6,0.2-1.3,0.1-2c-0.3-4-3.8-7-7.8-6.6
			c-3.3,0.3-5.9,2.8-6.5,5.9c0,0.1-0.1,0.1-0.1,0.2c-0.4,2.6-0.5,5.2-0.5,7.9c0.6,27.1,23.3,48.7,50.4,48.1c1,0,2-0.1,3-0.2
			c8.1-0.7,15.7-3.4,22.2-7.5C-660.9-424.8-659.5-427.4-659.8-430.2z"/>
	</g>
	
		<ellipse transform="matrix(0.9964 -8.451965e-02 8.451965e-02 0.9964 31.2533 -55.3592)" class="st3" cx="-638.2" cy="-396.8" rx="7.3" ry="7.3"/>
	<g>
		<g>
			<path class="st3" d="M-645.2-404.8c-3,2.6-7.6,2.3-10.2-0.7l-28.2-32.1c-2.6-3-2.3-7.6,0.7-10.2c3-2.6,7.6-2.3,10.2,0.7
				l28.2,32.1C-641.9-412-642.2-407.5-645.2-404.8z"/>
		</g>
	</g>
	<path class="st2" d="M-840.4-450C-840.4-450-840.4-450.1-840.4-450c0-0.1,0-0.1,0-0.2c0-18.2-14.2-33.6-32.6-34.7
		c-19.3-1.2-35.7,13.6-36.8,32.6c-1.2,19.1,13.4,35.6,32.6,36.8c0.7,0,1.4,0.1,2.1,0.1c5.6,0,10.9-1.3,15.5-3.7
		c2.9-1.1,4.8-4.1,4.5-7.3c-0.3-4-3.8-7-7.8-6.6c-1.1,0.1-2,0.4-2.9,0.9l0,0c-3.2,1.6-6.8,2.5-10.6,2.3c-11.2-0.7-19.7-10.3-19-21.5
		c0.6-10.7,9.5-19,20.2-19c0.4,0,0.8,0,1.3,0c10.7,0.7,19,9.6,19,20.2l0,0c0,0.2,0,0.4,0,0.6c0.3,4,3.8,6.9,7.8,6.6
		C-843.4-443.3-840.6-446.4-840.4-450L-840.4-450z"/>
	<g class="st0">
		<g>
			<path class="st1" d="M-840.4-450.2c0,4-3.2,7.3-7.3,7.3h-30.5c-4,0-7.2-3.2-7.2-7.3c0-4,3.2-7.2,7.2-7.2h30.5
				C-843.7-457.5-840.4-454.2-840.4-450.2z"/>
		</g>
	</g>
	<text transform="matrix(1 0 0 1 -1043.2793 -389.5283)" class="st1" style="font-family:'OpenSans-Light'; font-size:24px;">Separating the Foxes from</text>
	<text transform="matrix(1 0 0 1 -983.3793 -360.7283)" class="st1" style="font-family:'OpenSans-Light'; font-size:24px;">the Hedgehogs</text>
</g>
<g>
	<g class="st0">
		<g>
			<path class="st1" d="M52.5,132.5c-5.3,0-9.5-4.3-9.5-9.5V9.5C43,4.2,47.3,0,52.5,0C57.8,0,62,4.3,62,9.5V123
				C62,128.3,57.8,132.5,52.5,132.5z"/>
		</g>
	</g>
	<g class="st0">
		<path class="st1" d="M71.5,84.1c-2.4,0-4.8-0.9-6.6-2.7c-3.8-3.6-3.9-9.7-0.2-13.4l25.2-24.1c3.6-3.8,9.7-3.9,13.4-0.2
			c3.8,3.6,3.9,9.7,0.2,13.4L78.2,81.2C76.5,83.1,74,84.1,71.5,84.1z"/>
	</g>
	<g class="st0">
		<path class="st1" d="M110.4,132.6c-2.7,0-5.5-1.2-7.4-3.5L64.2,80.6c-3.3-4.1-2.7-10.1,1.3-13.4c4.1-3.3,10.1-2.7,13.4,1.3
			l38.8,48.5c3.3,4.1,2.7,10.1-1.3,13.4C114.6,131.9,112.5,132.6,110.4,132.6z"/>
	</g>
	<g class="st0">
		<g>
			<g>
				<path class="st1" d="M345.6,132.6c-3.9,0-7.6-2.4-8.9-6.3l-27.6-72.1c-1.8-4.9,0.8-10.4,5.7-12.2c4.9-1.8,10.4,0.8,12.2,5.7
					l27.6,72.1c1.8,4.9-0.8,10.4-5.7,12.2C347.8,132.4,346.7,132.6,345.6,132.6z"/>
			</g>
		</g>
	</g>
	<g class="st0">
		<g>
			<g>
				<path class="st1" d="M345.6,132.6c3.9,0,7.6-2.4,8.9-6.3l27.6-72.1c1.8-4.9-0.8-10.4-5.7-12.2c-4.9-1.8-10.4,0.8-12.2,5.7
					l-27.5,72.2c-1.8,4.9,0.8,10.4,5.7,12.2C343.4,132.4,344.5,132.6,345.6,132.6z"/>
			</g>
		</g>
	</g>
	<g class="st0">
		<g>
			<g>
				<path class="st1" d="M400.8,132.6c-3.9,0-7.6-2.4-8.9-6.3l-27.6-72.1c-1.8-4.9,0.8-10.4,5.7-12.2c4.9-1.8,10.4,0.8,12.2,5.7
					l27.6,72.1c1.8,4.9-0.8,10.4-5.7,12.2C402.9,132.4,401.8,132.6,400.8,132.6z"/>
			</g>
		</g>
	</g>
	<g class="st0">
		<g>
			<g>
				<path class="st1" d="M400.7,132.6c3.9,0,7.6-2.4,8.9-6.3l27.6-72.1c1.8-4.9-0.8-10.4-5.7-12.2c-4.9-1.8-10.4,0.8-12.2,5.7
					l-27.5,72.2c-1.8,4.9,0.8,10.4,5.7,12.2C398.6,132.4,399.7,132.6,400.7,132.6z"/>
			</g>
		</g>
	</g>
	<g class="st0">
		<g>
			<path class="st1" d="M199.7,132.6c-5.3,0-9.5-4.3-9.5-9.5V85.7c0-5.3,4.3-9.5,9.5-9.5c5.3,0,9.5,4.3,9.5,9.5v37.4
				C209.3,128.4,205,132.6,199.7,132.6z"/>
		</g>
	</g>
	<g class="st0">
		<g>
			<path class="st1" d="M135,132.5c-5.3,0-9.5-4.3-9.5-9.5V85.6c0-5.3,4.3-9.5,9.5-9.5c5.3,0,9.5,4.3,9.5,9.5v37.3
				C144.5,128.2,140.2,132.5,135,132.5z"/>
		</g>
	</g>
	<path class="st2" d="M209.1,84.8c0.4-10.9-3.3-21.4-10.5-29.6c-7.4-8.4-17.6-13.5-28.8-14.1c-23.2-1.4-42.9,16.5-44.3,39.5
		c-0.1,1.4-0.1,2.8,0,4.2c0,0.3-0.1,0.7-0.1,1c0,5.4,4.3,9.7,9.6,9.7s9.4-4.6,9.4-9.9c0,0,0-2.6,0-4c0.7-12,10.9-21.2,22.8-21.2
		c0.5,0,0.9,0,1.4,0c6,0.4,11.5,3.1,15.5,7.6c4,4.6,6.3,10.4,5.9,16.5c0,0.4,0,1.2,0,1.2c0,5.4,4,9.7,9.3,9.7s9.6-4.3,9.6-9.7
		C209.2,85.4,209.2,85.1,209.1,84.8z"/>
	<path class="st3" d="M556.7,18.7C544,6.6,527.3,0.1,509.7,0.5c-1.4,0-2.7,0.1-4.1,0.2c-28,2.4-50.9,22.1-57.8,48
		c-0.3,1-1.6,6-1.8,8.7l0,0c-0.1,0.7-0.1,1.5-0.1,2.2c0.5,5.3,5.1,9.3,10.5,8.8c4.8-0.4,8.5-4.2,8.8-8.9c3-21,20.2-37.8,42-39.6
		c1-0.1,1.9-0.1,2.9-0.2c12.4-0.3,24.2,4.3,33.2,12.8c9,8.6,14.1,20.1,14.4,32.5c0.4,17-8.5,32.3-22.1,40.7l0,0
		c-2.6,1.9-4.2,5.1-3.9,8.6c0.5,5.3,5.1,9.3,10.5,8.8c1.4-0.1,2.8-0.6,4-1.2l0,0c0.1,0,0.1-0.1,0.2-0.1c0.2-0.1,0.3-0.2,0.5-0.3
		c2.3-1.5,4-2.8,4.1-2.8c16.4-12.4,26.7-32.2,26.1-54.1C576.7,47.2,569.4,30.9,556.7,18.7z"/>
	<g class="st0">
		<path class="st4" d="M535.6,105.9L535.6,105.9L535.6,105.9z"/>
		<path class="st1" d="M551,112.9c-0.5-5.3-5.1-9.3-10.5-8.8c-1.9,0.2-3.5,0.8-4.9,1.9l0,0c-6,3.7-12.9,6.1-20.4,6.7
			c-1,0.1-1.9,0.1-2.9,0.2c-25.6,0.6-46.9-19.7-47.6-45.4c-0.1-2.5,0.3-5.9,0.3-6.7c0.2-0.9,0.2-1.8,0.2-2.7
			c-0.5-5.3-5.1-9.3-10.5-8.8c-4.4,0.4-7.9,3.7-8.7,7.9c0,0.1-0.1,0.1-0.1,0.2c-0.5,3.5-0.7,7-0.6,10.6
			c0.9,36.3,31.1,65.1,67.4,64.3c1.4,0,2.7-0.1,4.1-0.2c10.9-0.9,20.9-4.5,29.6-10C549.5,120.1,551.3,116.7,551,112.9z"/>
	</g>
	
		<ellipse transform="matrix(0.9964 -8.451965e-02 8.451965e-02 0.9964 -11.2444 49.5759)" class="st3" cx="579.9" cy="157.6" rx="9.7" ry="9.7"/>
	<g>
		<g>
			<path class="st3" d="M570.4,146.8c-4,3.5-10.1,3.1-13.7-0.9l-37.7-43c-3.5-4-3.1-10.1,0.9-13.7c4-3.5,10.1-3.1,13.7,0.9l37.7,43
				C574.8,137.2,574.4,143.3,570.4,146.8z"/>
		</g>
	</g>
	<path class="st2" d="M309.4,86.4C309.4,86.4,309.4,86.3,309.4,86.4c0-0.1,0-0.2,0-0.2c0-24.4-19-44.9-43.6-46.4
		c-25.8-1.6-47.7,18.1-49.2,43.6c-1.6,25.6,18,47.7,43.6,49.2c1,0.1,1.9,0.1,2.9,0.1c7.5,0,14.5-1.8,20.8-5c3.9-1.5,6.5-5.5,6.1-9.8
		c-0.5-5.3-5.1-9.3-10.5-8.8c-1.4,0.1-2.7,0.5-3.9,1.2l0,0c-4.2,2.2-9.1,3.3-14.2,3c-14.9-0.9-26.3-13.8-25.4-28.7
		c0.9-14.3,12.7-25.4,27-25.4c0.6,0,1.1,0,1.7,0.1c14.3,0.9,25.4,12.8,25.4,27l0,0c0,0.3,0,0.5,0,0.8c0.5,5.3,5.1,9.3,10.5,8.8
		C305.5,95.3,309.3,91.3,309.4,86.4L309.4,86.4z"/>
	<g class="st0">
		<g>
			<path class="st1" d="M309.4,86.1c0,5.4-4.3,9.7-9.7,9.7H259c-5.3,0-9.7-4.3-9.7-9.7c0-5.4,4.3-9.7,9.7-9.7h40.7
				C305.1,76.4,309.4,80.8,309.4,86.1z"/>
		</g>
	</g>
</g>
</svg>
