<?xml version="1.0" encoding="utf-8"?>
<!-- Generator: Adobe Illustrator 19.2.1, SVG Export Plug-In . SVG Version: 6.00 Build 0)  -->
<svg version="1.1" id="Layer_1" xmlns="http://www.w3.org/2000/svg" xmlns:xlink="http://www.w3.org/1999/xlink" x="0px" y="0px"
	 viewBox="0 0 612 224" style="enable-background:new 0 0 612 224;" xml:space="preserve">
<style type="text/css">
	.st0{opacity:0.8;}
	.st1{fill:#FFFFFF;}
	.st2{opacity:0.8;fill:#FFFFFF;enable-background:new    ;}
	.st3{fill:#3E6FAB;}
	.st4{fill:#DD9B31;}
	.st5{enable-background:new    ;}
</style>
<g>
	<g class="st0">
		<g>
			<path class="st1" d="M-1032.6-405.4c-3.9,0-7.1-3.2-7.1-7.1v-84.9c0-3.9,3.2-7.1,7.1-7.1s7.1,3.2,7.1,7.1v84.9
				C-1025.5-408.6-1028.7-405.4-1032.6-405.4z"/>
		</g>
	</g>
	<g class="st0">
		<path class="st1" d="M-1018.4-441.6c-1.8,0-3.6-0.7-4.9-2c-2.8-2.7-2.9-7.2-0.2-10.1l18.9-18c2.7-2.8,7.2-2.9,10.1-0.2
			c2.8,2.7,2.9,7.2,0.2,10.1l-18.9,18C-1014.6-442.4-1016.5-441.6-1018.4-441.6z"/>
	</g>
	<g class="st0">
		<path class="st1" d="M-989.3-405.4c-2.1,0-4.1-0.9-5.5-2.6l-29-36.3c-2.5-3-2.1-7.5,1-10c3-2.5,7.5-2.1,10,1l29,36.3
			c2.5,3,2,7.5-1,10C-986.1-405.9-987.7-405.4-989.3-405.4z"/>
	</g>
	<g class="st0">
		<g>
			<g>
				<path class="st1" d="M-813.4-405.4c-2.9,0-5.6-1.8-6.7-4.7l-20.6-53.9c-1.3-3.7,0.6-7.8,4.3-9.1c3.7-1.3,7.8,0.6,9.1,4.3
					l20.6,53.9c1.3,3.7-0.6,7.8-4.3,9.1C-811.8-405.5-812.6-405.4-813.4-405.4z"/>
			</g>
		</g>
	</g>
	<g class="st0">
		<g>
			<g>
				<path class="st1" d="M-813.4-405.4c2.9,0,5.6-1.8,6.7-4.7l20.6-53.9c1.3-3.7-0.6-7.8-4.3-9.1c-3.7-1.3-7.8,0.6-9.1,4.3
					l-20.6,53.9c-1.3,3.7,0.6,7.8,4.3,9.1C-815-405.5-814.2-405.4-813.4-405.4z"/>
			</g>
		</g>
	</g>
	<g class="st0">
		<g>
			<g>
				<path class="st1" d="M-772.1-405.4c-2.9,0-5.6-1.8-6.7-4.7l-20.6-53.9c-1.3-3.7,0.6-7.8,4.3-9.1c3.7-1.3,7.8,0.6,9.1,4.3
					l20.6,53.9c1.3,3.7-0.6,7.8-4.3,9.1C-770.5-405.5-771.3-405.4-772.1-405.4z"/>
			</g>
		</g>
	</g>
	<g class="st0">
		<g>
			<g>
				<path class="st1" d="M-772.1-405.4c2.9,0,5.6-1.8,6.7-4.7l20.6-53.9c1.3-3.7-0.6-7.8-4.3-9.1c-3.7-1.3-7.8,0.6-9.1,4.3
					l-20.6,53.9c-1.3,3.7,0.6,7.8,4.3,9.1C-773.8-405.5-772.9-405.4-772.1-405.4z"/>
			</g>
		</g>
	</g>
	<g class="st0">
		<g>
			<path class="st1" d="M-922.5-405.4c-3.9,0-7.1-3.2-7.1-7.1v-28c0-3.9,3.2-7.1,7.1-7.1c3.9,0,7.1,3.2,7.1,7.1v28
				C-915.4-408.5-918.5-405.4-922.5-405.4z"/>
		</g>
	</g>
	<g class="st0">
		<g>
			<path class="st1" d="M-970.9-405.5c-3.9,0-7.1-3.2-7.1-7.1v-28c0-3.9,3.2-7.1,7.1-7.1c3.9,0,7.1,3.2,7.1,7.1v28
				C-963.8-408.7-967-405.5-970.9-405.5z"/>
		</g>
	</g>
	<path class="st2" d="M-915.4-441.1c0.3-8.2-2.4-16-7.8-22.2c-5.5-6.3-13.2-10.1-21.5-10.6c-17.3-1.1-32.1,12.3-33.1,29.6
		c-0.1,1.1-0.1,2.1,0,3.1c0,0.2,0,0.5,0,0.8c0,4,3.2,7.3,7.2,7.3s7-3.4,7-7.4c0,0,0-2,0-3c0.5-9,8.1-15.8,17-15.8c0.3,0,0.7,0,1.1,0
		c4.5,0.3,8.6,2.3,11.6,5.7s4.7,7.8,4.4,12.3c0,0.3,0,0.9,0,0.9c0,4,3,7.3,7,7.3s7.2-3.2,7.2-7.3
		C-915.4-440.6-915.4-440.9-915.4-441.1z"/>
	<path class="st3" d="M-655.5-490.5c-9.5-9.1-22-13.9-35.2-13.6c-1,0-2,0.1-3,0.2c-20.9,1.8-38,16.5-43.3,35.9
		c-0.2,0.8-1.2,4.5-1.3,6.5l0,0c-0.1,0.5-0.1,1.1-0.1,1.7c0.3,4,3.8,6.9,7.8,6.6c3.6-0.3,6.3-3.2,6.6-6.6
		c2.3-15.7,15.1-28.3,31.4-29.6c0.7-0.1,1.4-0.1,2.2-0.1c9.3-0.2,18.1,3.2,24.8,9.6s10.5,15,10.8,24.3c0.3,12.7-6.3,24.1-16.5,30.4
		l0,0c-2,1.4-3.2,3.8-2.9,6.4c0.3,4,3.8,6.9,7.8,6.6c1.1-0.1,2.1-0.4,3-0.9l0,0c0.1,0,0.1-0.1,0.2-0.1c0.1-0.1,0.3-0.2,0.4-0.2
		c1.7-1.1,3-2.1,3-2.1c12.2-9.3,19.9-24.1,19.6-40.4C-640.6-469.2-646-481.5-655.5-490.5z"/>
	<g class="st0">
		<path class="st4" d="M-671.3-425.3L-671.3-425.3L-671.3-425.3z"/>
		<path class="st1" d="M-659.8-420.1c-0.3-4-3.8-7-7.8-6.6c-1.4,0.1-2.6,0.6-3.7,1.4l0,0c-4.5,2.8-9.7,4.6-15.2,5
			c-0.7,0.1-1.4,0.1-2.2,0.1c-19.2,0.5-35.1-14.8-35.6-33.9c0-1.8,0.2-4.4,0.2-5c0.1-0.6,0.2-1.3,0.1-2c-0.3-4-3.8-7-7.8-6.6
			c-3.3,0.3-5.9,2.8-6.5,5.9c0,0.1-0.1,0.1-0.1,0.2c-0.4,2.6-0.5,5.2-0.5,7.9c0.6,27.1,23.3,48.7,50.4,48.1c1,0,2-0.1,3-0.2
			c8.1-0.7,15.7-3.4,22.2-7.5C-660.9-414.7-659.5-417.3-659.8-420.1z"/>
	</g>
	
		<ellipse transform="matrix(0.9964 -8.451965e-02 8.451965e-02 0.9964 30.3997 -55.3231)" class="st3" cx="-638.2" cy="-386.7" rx="7.3" ry="7.3"/>
	<g>
		<g>
			<path class="st3" d="M-645.2-394.7c-3,2.6-7.6,2.3-10.2-0.7l-28.2-32.1c-2.6-3-2.3-7.6,0.7-10.2c3-2.6,7.6-2.3,10.2,0.7
				l28.2,32.1C-641.9-401.9-642.2-397.4-645.2-394.7z"/>
		</g>
	</g>
	<path class="st2" d="M-840.4-439.9C-840.4-439.9-840.4-440-840.4-439.9c0-0.1,0-0.1,0-0.2c0-18.2-14.2-33.6-32.6-34.7
		c-19.3-1.2-35.7,13.6-36.8,32.6c-1.2,19.1,13.4,35.6,32.6,36.8c0.7,0,1.4,0.1,2.1,0.1c5.6,0,10.9-1.3,15.5-3.7
		c2.9-1.1,4.8-4.1,4.5-7.3c-0.3-4-3.8-7-7.8-6.6c-1.1,0.1-2,0.4-2.9,0.9l0,0c-3.2,1.6-6.8,2.5-10.6,2.3c-11.2-0.7-19.7-10.3-19-21.5
		c0.6-10.7,9.5-19,20.2-19c0.4,0,0.8,0,1.3,0c10.7,0.7,19,9.6,19,20.2l0,0c0,0.2,0,0.4,0,0.6c0.3,4,3.8,6.9,7.8,6.6
		C-843.4-433.2-840.6-436.3-840.4-439.9L-840.4-439.9z"/>
	<g class="st0">
		<g>
			<path class="st1" d="M-840.4-440.1c0,4-3.2,7.3-7.3,7.3h-30.5c-4,0-7.2-3.2-7.2-7.3c0-4,3.2-7.2,7.2-7.2h30.5
				C-843.7-447.4-840.4-444.1-840.4-440.1z"/>
		</g>
	</g>
	<text transform="matrix(1 0 0 1 -1043.2793 -379.4283)" class="st1" style="font-family:'OpenSans-Light'; font-size:24px;">Separating the Foxes from</text>
	<text transform="matrix(1 0 0 1 -983.3793 -350.6283)" class="st1" style="font-family:'OpenSans-Light'; font-size:24px;">the Hedgehogs</text>
</g>
<g>
	<g class="st0">
		<g>
			<path class="st1" d="M46.7,137.1c-5.3,0-9.5-4.3-9.5-9.5V14.1c0-5.3,4.3-9.5,9.5-9.5c5.3,0,9.5,4.3,9.5,9.5v113.5
				C56.2,132.8,51.9,137.1,46.7,137.1z"/>
		</g>
	</g>
	<g class="st0">
		<path class="st1" d="M65.7,88.7c-2.4,0-4.8-0.9-6.6-2.7c-3.8-3.6-3.9-9.7-0.2-13.4l25.3-24.1c3.6-3.8,9.7-3.9,13.4-0.2
			c3.8,3.6,3.9,9.7,0.2,13.4L72.5,85.8C70.7,87.7,68.2,88.7,65.7,88.7z"/>
	</g>
	<g class="st0">
		<path class="st1" d="M104.6,137.2c-2.7,0-5.5-1.2-7.4-3.5L58.4,85.2c-3.3-4.1-2.7-10.1,1.3-13.4c4.1-3.3,10.1-2.7,13.4,1.3
			l38.8,48.5c3.3,4.1,2.7,10.1-1.3,13.4C108.8,136.5,106.7,137.2,104.6,137.2z"/>
	</g>
	<g class="st0">
		<g>
			<g>
				<path class="st1" d="M339.8,137.2c-3.9,0-7.6-2.4-8.9-6.3l-27.6-72.1c-1.8-4.9,0.8-10.4,5.7-12.2c4.9-1.8,10.4,0.8,12.2,5.7
					l27.6,72.1c1.8,4.9-0.8,10.4-5.7,12.2C341.9,137,340.9,137.2,339.8,137.2z"/>
			</g>
		</g>
	</g>
	<g class="st0">
		<g>
			<g>
				<path class="st1" d="M339.8,137.2c3.9,0,7.6-2.4,8.9-6.3l27.6-72.1c1.8-4.9-0.8-10.4-5.7-12.2c-4.9-1.8-10.4,0.8-12.2,5.7
					l-27.6,72.1c-1.8,4.9,0.8,10.4,5.7,12.2C337.6,137,338.7,137.2,339.8,137.2z"/>
			</g>
		</g>
	</g>
	<g class="st0">
		<g>
			<g>
				<path class="st1" d="M394.9,137.2c-3.9,0-7.6-2.4-8.9-6.3l-27.6-72.1c-1.8-4.9,0.8-10.4,5.7-12.2c4.9-1.8,10.4,0.8,12.2,5.7
					l27.6,72.1c1.8,4.9-0.8,10.4-5.7,12.2C397.1,137,396,137.2,394.9,137.2z"/>
			</g>
		</g>
	</g>
	<g class="st0">
		<g>
			<g>
				<path class="st1" d="M394.9,137.2c3.9,0,7.6-2.4,8.9-6.3l27.6-72.1c1.8-4.9-0.8-10.4-5.7-12.2c-4.9-1.8-10.4,0.8-12.2,5.7
					L386,124.4c-1.8,4.9,0.8,10.4,5.7,12.2C392.8,137,393.9,137.2,394.9,137.2z"/>
			</g>
		</g>
	</g>
	<g class="st0">
		<g>
			<path class="st1" d="M193.9,137.2c-5.3,0-9.5-4.3-9.5-9.5V90.3c0-5.3,4.3-9.5,9.5-9.5c5.3,0,9.5,4.3,9.5,9.5v37.4
				C203.4,132.9,199.2,137.2,193.9,137.2z"/>
		</g>
	</g>
	<g class="st0">
		<g>
			<path class="st1" d="M129.2,137c-5.3,0-9.5-4.3-9.5-9.5V90.1c0-5.3,4.3-9.5,9.5-9.5c5.3,0,9.5,4.3,9.5,9.5v37.4
				C138.7,132.8,134.4,137,129.2,137z"/>
		</g>
	</g>
	<path class="st2" d="M203.3,89.4c0.4-10.9-3.3-21.4-10.5-29.6c-7.4-8.4-17.6-13.5-28.8-14.1c-23.2-1.4-42.9,16.5-44.3,39.5
		c-0.1,1.4-0.1,2.8,0,4.2c0,0.3-0.1,0.7-0.1,1c0,5.4,4.3,9.7,9.6,9.7c5.3,0,9.4-4.6,9.4-9.9c0,0,0-2.6,0-4
		c0.7-12,10.9-21.2,22.8-21.2c0.5,0,0.9,0,1.4,0c6,0.4,11.5,3.1,15.5,7.6c4,4.6,6.3,10.4,5.9,16.5c0,0.4,0,1.2,0,1.2
		c0,5.4,4,9.7,9.3,9.7s9.6-4.3,9.6-9.7C203.4,90,203.3,89.7,203.3,89.4z"/>
	<path class="st3" d="M550.9,23.3c-12.7-12.1-29.4-18.6-47-18.2c-1.4,0-2.7,0.1-4.1,0.2c-28,2.4-50.9,22.1-57.8,48
		c-0.3,1-1.6,6-1.8,8.7l0,0c-0.1,0.7-0.1,1.5-0.1,2.2c0.5,5.3,5.1,9.3,10.5,8.8c4.8-0.4,8.5-4.2,8.8-8.9c3-21,20.2-37.8,42-39.6
		c1-0.1,1.9-0.1,2.9-0.2c12.4-0.3,24.2,4.3,33.2,12.8c9,8.6,14.1,20.1,14.4,32.5c0.4,17-8.5,32.3-22.1,40.7l0,0
		c-2.6,1.9-4.2,5.1-3.9,8.6c0.5,5.3,5.1,9.3,10.5,8.8c1.4-0.1,2.8-0.6,4-1.2l0,0c0.1,0,0.1-0.1,0.2-0.1c0.2-0.1,0.3-0.2,0.5-0.3
		c2.3-1.5,4-2.8,4.1-2.8c16.4-12.4,26.7-32.2,26.1-54.1C570.8,51.8,563.6,35.4,550.9,23.3z"/>
	<g class="st0">
		<path class="st4" d="M529.8,110.5L529.8,110.5L529.8,110.5z"/>
		<path class="st1" d="M545.2,117.5c-0.5-5.3-5.1-9.3-10.5-8.8c-1.9,0.2-3.5,0.8-4.9,1.9l0,0c-6,3.7-12.9,6.1-20.4,6.7
			c-1,0.1-1.9,0.1-2.9,0.2c-25.6,0.6-46.9-19.7-47.6-45.4c-0.1-2.5,0.3-5.9,0.3-6.7c0.2-0.9,0.2-1.8,0.2-2.7
			c-0.5-5.3-5.1-9.3-10.5-8.8c-4.4,0.4-7.9,3.7-8.7,7.9c0,0.1-0.1,0.1-0.1,0.2c-0.5,3.5-0.7,7-0.6,10.6
			c0.9,36.3,31.1,65.1,67.4,64.3c1.4,0,2.7-0.1,4.1-0.2c10.9-0.9,20.9-4.5,29.6-10C543.6,124.7,545.5,121.2,545.2,117.5z"/>
	</g>
	
		<ellipse transform="matrix(0.9964 -8.451965e-02 8.451965e-02 0.9964 -11.6455 49.1014)" class="st3" cx="574.1" cy="162.1" rx="9.7" ry="9.7"/>
	<g>
		<g>
			<path class="st3" d="M564.6,151.4c-4,3.5-10.1,3.1-13.7-0.9l-37.7-43c-3.5-4-3.1-10.1,0.9-13.7c4-3.5,10.1-3.1,13.7,0.9l37.7,43
				C569,141.7,568.6,147.8,564.6,151.4z"/>
		</g>
	</g>
	<path class="st2" d="M303.6,91C303.6,90.9,303.6,90.9,303.6,91c0-0.1,0-0.2,0-0.2c0-24.4-19-44.9-43.6-46.4
		c-25.8-1.6-47.7,18.1-49.2,43.6c-1.6,25.6,18,47.7,43.6,49.2c1,0.1,1.9,0.1,2.9,0.1c7.5,0,14.5-1.8,20.8-5c3.9-1.5,6.5-5.5,6.1-9.8
		c-0.5-5.3-5.1-9.3-10.5-8.8c-1.4,0.1-2.7,0.5-3.9,1.2l0,0c-4.2,2.2-9.1,3.3-14.2,3c-14.9-0.9-26.3-13.8-25.4-28.7
		c0.9-14.3,12.7-25.4,27-25.4c0.6,0,1.1,0,1.7,0.1c14.3,0.9,25.4,12.8,25.4,27l0,0c0,0.3,0,0.5,0,0.8c0.5,5.3,5.1,9.3,10.5,8.8
		C299.7,99.9,303.5,95.8,303.6,91L303.6,91z"/>
	<g class="st0">
		<g>
			<path class="st1" d="M303.6,90.7c0,5.4-4.3,9.7-9.7,9.7h-40.7c-5.3,0-9.7-4.3-9.7-9.7c0-5.4,4.3-9.7,9.7-9.7h40.7
				C299.3,81,303.6,85.3,303.6,90.7z"/>
		</g>
	</g>
	<g>
		<path class="st1" d="M48.3,165.9c0,1.9-0.7,3.4-2.1,4.5c-1.4,1.1-3.3,1.7-5.6,1.7c-2.8,0-4.9-0.3-6.4-0.9v-1.6
			c1.7,0.7,3.8,1,6.3,1c1.9,0,3.4-0.4,4.5-1.3s1.7-2,1.7-3.4c0-0.9-0.2-1.6-0.5-2.2c-0.4-0.6-1-1.1-1.8-1.6s-2-1-3.6-1.5
			c-2.3-0.8-4-1.7-4.8-2.6c-0.9-0.9-1.3-2.2-1.3-3.7c0-1.7,0.7-3.1,2-4.2s3.1-1.6,5.2-1.6c2.2,0,4.2,0.4,6.1,1.2l-0.6,1.4
			c-1.9-0.8-3.7-1.2-5.5-1.2c-1.7,0-3,0.4-4,1.2c-1,0.8-1.5,1.8-1.5,3.2c0,0.8,0.2,1.5,0.5,2.1c0.3,0.5,0.8,1,1.5,1.5
			c0.7,0.4,1.9,1,3.6,1.6c1.8,0.6,3.1,1.2,4,1.8c0.9,0.6,1.6,1.2,2,2C48.1,164,48.3,164.9,48.3,165.9z"/>
		<path class="st1" d="M59.6,172.1c-2.5,0-4.4-0.8-5.8-2.3s-2.1-3.7-2.1-6.4c0-2.7,0.7-4.9,2-6.5s3.1-2.5,5.4-2.5
			c2,0,3.6,0.7,4.7,2.1c1.2,1.4,1.7,3.3,1.7,5.7v1.3H53.4c0,2.3,0.6,4.1,1.6,5.4c1.1,1.2,2.6,1.8,4.6,1.8c1,0,1.8-0.1,2.6-0.2
			s1.7-0.4,2.8-0.9v1.4c-1,0.4-1.8,0.7-2.7,0.9C61.5,172.1,60.6,172.1,59.6,172.1z M59.1,155.8c-1.6,0-3,0.5-3.9,1.6
			s-1.6,2.6-1.7,4.7H64c0-2-0.4-3.5-1.3-4.6S60.7,155.8,59.1,155.8z"/>
		<path class="st1" d="M77.6,172.1c-2.6,0-4.5-1-5.7-2.9h-0.1v1.3c0,0.8,0.1,1.6,0.1,2.5v6.5h-1.6v-24.7h1.3l0.3,2.4H72
			c1.2-1.8,3-2.8,5.6-2.8c2.3,0,4.1,0.8,5.3,2.3c1.2,1.5,1.8,3.7,1.8,6.6c0,2.8-0.6,5-1.9,6.5C81.5,171.4,79.8,172.1,77.6,172.1z
			 M77.6,170.8c1.7,0,3.1-0.6,4.1-1.9s1.4-3.1,1.4-5.4c0-5-1.8-7.5-5.4-7.5c-2,0-3.4,0.5-4.4,1.6c-0.9,1.1-1.4,2.9-1.4,5.3v0.5
			c0,2.7,0.4,4.6,1.3,5.7S75.6,170.8,77.6,170.8z"/>
		<path class="st1" d="M99.8,171.8l-0.4-2.7h-0.1c-0.9,1.1-1.7,1.9-2.6,2.3c-0.9,0.5-2,0.7-3.2,0.7c-1.7,0-3-0.4-3.9-1.3
			s-1.4-2-1.4-3.6c0-1.7,0.7-3,2.1-3.9s3.4-1.4,6-1.5l3.2-0.1v-1.1c0-1.6-0.3-2.8-1-3.7s-1.7-1.2-3.2-1.2c-1.6,0-3.2,0.4-4.9,1.3
			l-0.6-1.3c1.9-0.9,3.7-1.3,5.5-1.3c1.9,0,3.3,0.5,4.2,1.5c0.9,1,1.4,2.5,1.4,4.5v11.3h-1.1V171.8z M93.5,170.7
			c1.8,0,3.3-0.5,4.3-1.6s1.6-2.5,1.6-4.3v-1.7l-3,0.1c-2.4,0.1-4.1,0.5-5.1,1.1s-1.5,1.6-1.5,3c0,1.1,0.3,1.9,1,2.5
			C91.4,170.4,92.3,170.7,93.5,170.7z"/>
		<path class="st1" d="M113.1,154.5c0.7,0,1.5,0.1,2.3,0.2l-0.3,1.5c-0.7-0.2-1.4-0.3-2.2-0.3c-1.5,0-2.6,0.6-3.6,1.8
			c-0.9,1.2-1.4,2.8-1.4,4.7v9.4h-1.6v-17h1.3l0.2,3.1h0.1c0.7-1.3,1.4-2.1,2.2-2.6C111.1,154.7,112,154.5,113.1,154.5z"/>
		<path class="st1" d="M129.3,171.8l-0.4-2.7h-0.1c-0.9,1.1-1.7,1.9-2.6,2.3c-0.9,0.5-2,0.7-3.2,0.7c-1.7,0-3-0.4-3.9-1.3
			s-1.4-2-1.4-3.6c0-1.7,0.7-3,2.1-3.9s3.4-1.4,6-1.5l3.2-0.1v-1.1c0-1.6-0.3-2.8-1-3.7s-1.7-1.2-3.2-1.2c-1.6,0-3.2,0.4-4.9,1.3
			l-0.6-1.3c1.9-0.9,3.7-1.3,5.5-1.3c1.9,0,3.3,0.5,4.2,1.5s1.4,2.5,1.4,4.5v11.3h-1.1V171.8z M123,170.7c1.8,0,3.3-0.5,4.3-1.6
			c1-1,1.6-2.5,1.6-4.3v-1.7l-3,0.1c-2.4,0.1-4.1,0.5-5.1,1.1s-1.5,1.6-1.5,3c0,1.1,0.3,1.9,1,2.5S121.8,170.7,123,170.7z"/>
		<path class="st1" d="M140.4,170.8c1,0,1.8-0.1,2.6-0.3v1.3c-0.8,0.3-1.6,0.4-2.6,0.4c-1.5,0-2.6-0.4-3.3-1.2
			c-0.7-0.8-1.1-2.1-1.1-3.8v-11h-2.5v-0.9l2.5-0.7l0.8-3.9h0.8v4.1h5v1.3h-5v10.8c0,1.3,0.2,2.3,0.7,2.9
			C138.7,170.5,139.4,170.8,140.4,170.8z"/>
		<path class="st1" d="M146.5,150.1c0-1,0.3-1.5,1-1.5c0.3,0,0.6,0.1,0.8,0.4s0.3,0.6,0.3,1.1s-0.1,0.8-0.3,1.1
			c-0.2,0.3-0.4,0.4-0.8,0.4C146.8,151.6,146.5,151.1,146.5,150.1z M148.2,171.8h-1.6v-17h1.6V171.8z"/>
		<path class="st1" d="M165.8,171.8v-11c0-1.7-0.4-3-1.1-3.7c-0.7-0.8-1.8-1.2-3.4-1.2c-2,0-3.5,0.5-4.5,1.5c-0.9,1-1.4,2.7-1.4,5
			v9.4h-1.6v-17h1.3l0.3,2.3h0.1c1.1-1.8,3.1-2.7,5.9-2.7c3.9,0,5.8,2.1,5.8,6.2v11.1h-1.4V171.8z"/>
		<path class="st1" d="M186.1,154.8v1.1l-3.5,0.2c0.9,1.2,1.4,2.5,1.4,3.9c0,1.6-0.5,3-1.6,4s-2.6,1.5-4.4,1.5c-0.8,0-1.3,0-1.6-0.1
			c-0.6,0.3-1.1,0.7-1.4,1.1c-0.3,0.4-0.5,0.9-0.5,1.4s0.2,0.9,0.6,1.2s1.1,0.4,2.1,0.4h3c1.8,0,3.3,0.4,4.2,1.1
			c1,0.7,1.5,1.9,1.5,3.3c0,1.8-0.7,3.2-2.2,4.2s-3.5,1.5-6.2,1.5c-2.1,0-3.8-0.4-5-1.2c-1.2-0.8-1.8-2-1.8-3.4
			c0-1.2,0.4-2.1,1.1-2.9s1.7-1.3,3-1.6c-0.5-0.2-0.9-0.5-1.2-0.9s-0.5-0.9-0.5-1.4c0-1.1,0.7-2.1,2.2-3c-1-0.4-1.8-1-2.3-1.9
			c-0.6-0.9-0.8-1.9-0.8-3c0-1.7,0.5-3.1,1.6-4.1s2.5-1.5,4.4-1.5c1.1,0,2,0.1,2.6,0.3h5.3V154.8z M172.4,174.7
			c0,2.3,1.7,3.5,5.2,3.5c4.5,0,6.7-1.4,6.7-4.3c0-1-0.3-1.8-1-2.2c-0.7-0.5-1.8-0.7-3.4-0.7H177C173.9,171,172.4,172.3,172.4,174.7
			z M173.7,160.1c0,1.3,0.4,2.3,1.2,3.1s1.9,1.1,3.2,1.1c1.4,0,2.5-0.4,3.3-1.1s1.1-1.8,1.1-3.1c0-1.5-0.4-2.5-1.2-3.3
			s-1.9-1.1-3.3-1.1c-1.4,0-2.4,0.4-3.2,1.2C174,157.6,173.7,158.7,173.7,160.1z"/>
		<path class="st1" d="M202.5,170.8c1,0,1.8-0.1,2.6-0.3v1.3c-0.8,0.3-1.6,0.4-2.6,0.4c-1.5,0-2.6-0.4-3.3-1.2
			c-0.7-0.8-1.1-2.1-1.1-3.8v-11h-2.5v-0.9l2.5-0.7l0.8-3.9h0.8v4.1h5v1.3h-5v10.8c0,1.3,0.2,2.3,0.7,2.9
			C200.8,170.5,201.5,170.8,202.5,170.8z"/>
		<path class="st1" d="M220.6,171.8v-11c0-1.7-0.4-3-1.1-3.7c-0.7-0.8-1.8-1.2-3.4-1.2c-2,0-3.5,0.5-4.5,1.5c-0.9,1-1.4,2.7-1.4,5
			v9.4h-1.6v-24.4h1.6v7.8l-0.1,2.2h0.1c0.6-1,1.4-1.8,2.4-2.2c1-0.5,2.2-0.7,3.6-0.7c3.9,0,5.8,2.1,5.8,6.2v11.1L220.6,171.8
			L220.6,171.8z"/>
		<path class="st1" d="M234.5,172.1c-2.5,0-4.4-0.8-5.8-2.3s-2.1-3.7-2.1-6.4c0-2.7,0.7-4.9,2-6.5s3.1-2.5,5.4-2.5
			c2,0,3.6,0.7,4.7,2.1c1.2,1.4,1.7,3.3,1.7,5.7v1.3h-12.3c0,2.3,0.6,4.1,1.6,5.4c1.1,1.2,2.6,1.8,4.6,1.8c1,0,1.8-0.1,2.6-0.2
			c0.7-0.1,1.7-0.4,2.8-0.9v1.4c-1,0.4-1.8,0.7-2.7,0.9C236.4,172.1,235.5,172.1,234.5,172.1z M234.1,155.8c-1.6,0-3,0.5-3.9,1.6
			s-1.6,2.6-1.7,4.7H239c0-2-0.4-3.5-1.3-4.6S235.6,155.8,234.1,155.8z"/>
		<path class="st1" d="M255.6,171.8H254v-22.9h12.6v1.5h-11v9.7h10.3v1.5h-10.3L255.6,171.8L255.6,171.8z"/>
		<path class="st1" d="M283.8,163.3c0,2.8-0.7,4.9-2,6.5s-3.2,2.3-5.6,2.3c-1.5,0-2.8-0.4-3.9-1.1s-2-1.8-2.6-3.1
			c-0.6-1.3-0.9-2.9-0.9-4.7c0-2.8,0.7-4.9,2-6.5s3.2-2.3,5.5-2.3s4.2,0.8,5.5,2.4C283.1,158.4,283.8,160.6,283.8,163.3z
			 M270.4,163.3c0,2.3,0.5,4.2,1.5,5.5s2.5,2,4.4,2s3.3-0.7,4.4-2c1-1.3,1.5-3.1,1.5-5.5s-0.5-4.2-1.6-5.5c-1-1.3-2.5-1.9-4.4-1.9
			s-3.3,0.6-4.3,1.9S270.4,160.9,270.4,163.3z"/>
		<path class="st1" d="M292.7,163.1l-5.9-8.3h1.8l5.1,7.2l5-7.2h1.7l-5.8,8.3l6.3,8.8H299l-5.4-7.6l-5.4,7.6h-1.7L292.7,163.1z"/>
		<path class="st1" d="M311.4,172.1c-2.5,0-4.4-0.8-5.8-2.3s-2.1-3.7-2.1-6.4c0-2.7,0.7-4.9,2-6.5s3.1-2.5,5.4-2.5
			c2,0,3.6,0.7,4.7,2.1c1.2,1.4,1.7,3.3,1.7,5.7v1.3H305c0,2.3,0.6,4.1,1.6,5.4c1.1,1.2,2.6,1.8,4.6,1.8c1,0,1.8-0.1,2.6-0.2
			c0.7-0.1,1.7-0.4,2.8-0.9v1.4c-1,0.4-1.8,0.7-2.7,0.9C313.3,172.1,312.4,172.1,311.4,172.1z M310.9,155.8c-1.6,0-3,0.5-3.9,1.6
			s-1.6,2.6-1.7,4.7h10.5c0-2-0.4-3.5-1.3-4.6S312.4,155.8,310.9,155.8z"/>
		<path class="st1" d="M332.7,167.4c0,1.5-0.6,2.7-1.7,3.5c-1.2,0.8-2.8,1.2-4.9,1.2c-2.3,0-4.1-0.3-5.4-1v-1.7
			c1.7,0.9,3.5,1.3,5.4,1.3c1.7,0,3-0.3,3.8-0.8c0.9-0.6,1.3-1.3,1.3-2.2c0-0.9-0.3-1.6-1-2.2s-1.8-1.2-3.4-1.7
			c-1.7-0.6-2.9-1.1-3.6-1.6c-0.7-0.4-1.2-0.9-1.6-1.5s-0.5-1.2-0.5-2c0-1.3,0.5-2.3,1.6-3s2.6-1.1,4.5-1.1c1.8,0,3.6,0.3,5.2,1
			l-0.6,1.4c-1.7-0.7-3.2-1-4.7-1c-1.4,0-2.5,0.2-3.3,0.7s-1.2,1.1-1.2,1.9c0,0.9,0.3,1.6,0.9,2.1s1.9,1.1,3.7,1.8
			c1.5,0.6,2.7,1.1,3.4,1.5c0.7,0.4,1.2,0.9,1.6,1.5C332.5,166,332.7,166.6,332.7,167.4z"/>
		<path class="st1" d="M351.7,156.1h-4v15.7h-1.6v-15.7H343v-0.9l3.2-0.6v-1.3c0-2.1,0.4-3.6,1.2-4.6s2-1.5,3.8-1.5
			c0.9,0,1.9,0.1,2.8,0.4l-0.4,1.3c-0.8-0.3-1.7-0.4-2.5-0.4c-1.2,0-2.1,0.4-2.6,1.1s-0.8,1.9-0.8,3.5v1.6h4V156.1z"/>
		<path class="st1" d="M361.7,154.5c0.7,0,1.5,0.1,2.3,0.2l-0.3,1.5c-0.7-0.2-1.4-0.3-2.2-0.3c-1.5,0-2.6,0.6-3.6,1.8
			c-0.9,1.2-1.4,2.8-1.4,4.7v9.4H355v-17h1.3l0.2,3.1h0.1c0.7-1.3,1.4-2.1,2.2-2.6C359.6,154.7,360.6,154.5,361.7,154.5z"/>
		<path class="st1" d="M381.6,163.3c0,2.8-0.7,4.9-2,6.5s-3.2,2.3-5.6,2.3c-1.5,0-2.8-0.4-3.9-1.1s-2-1.8-2.6-3.1
			c-0.6-1.3-0.9-2.9-0.9-4.7c0-2.8,0.7-4.9,2-6.5s3.2-2.3,5.5-2.3s4.2,0.8,5.5,2.4C380.9,158.4,381.6,160.6,381.6,163.3z
			 M368.1,163.3c0,2.3,0.5,4.2,1.5,5.5s2.5,2,4.4,2s3.3-0.7,4.4-2c1-1.3,1.5-3.1,1.5-5.5s-0.5-4.2-1.6-5.5c-1-1.3-2.5-1.9-4.4-1.9
			s-3.3,0.6-4.3,1.9C368.7,159.1,368.1,160.9,368.1,163.3z"/>
		<path class="st1" d="M407.6,171.8v-11.2c0-1.7-0.3-2.9-1-3.6c-0.6-0.8-1.6-1.1-3-1.1c-1.7,0-3,0.5-3.9,1.4s-1.3,2.5-1.3,4.5v10
			h-1.6v-11.6c0-2.9-1.3-4.3-3.9-4.3c-1.8,0-3.1,0.5-3.9,1.6c-0.8,1-1.2,2.7-1.2,5v9.4h-1.6v-17h1.3l0.3,2.3h0.1
			c0.5-0.8,1.1-1.5,2-2s1.8-0.7,2.9-0.7c2.7,0,4.4,1,5.2,3h0.1c0.6-1,1.3-1.7,2.2-2.2s2-0.8,3.2-0.8c1.9,0,3.3,0.5,4.2,1.5
			c0.9,1,1.4,2.6,1.4,4.7v11.1L407.6,171.8L407.6,171.8z"/>
		<path class="st1" d="M119.8,209.3c1,0,1.8-0.1,2.6-0.3v1.3c-0.8,0.3-1.6,0.4-2.6,0.4c-1.5,0-2.6-0.4-3.3-1.2
			c-0.7-0.8-1.1-2.1-1.1-3.8v-11h-2.5v-0.9l2.5-0.7l0.8-3.9h0.8v4.1h5v1.3h-5v10.8c0,1.3,0.2,2.3,0.7,2.9S118.8,209.3,119.8,209.3z"
			/>
		<path class="st1" d="M137.9,210.3v-11c0-1.7-0.4-3-1.1-3.7c-0.7-0.8-1.8-1.2-3.4-1.2c-2,0-3.5,0.5-4.5,1.5c-0.9,1-1.4,2.7-1.4,5
			v9.4H126V186h1.6v7.8l-0.1,2.2h0.1c0.6-1,1.4-1.8,2.4-2.2c1-0.5,2.2-0.7,3.6-0.7c3.9,0,5.8,2.1,5.8,6.2v11.1h-1.5V210.3z"/>
		<path class="st1" d="M151.9,210.7c-2.5,0-4.4-0.8-5.8-2.3s-2.1-3.7-2.1-6.4c0-2.7,0.7-4.9,2-6.5s3.1-2.5,5.4-2.5
			c2,0,3.6,0.7,4.7,2.1c1.2,1.4,1.7,3.3,1.7,5.7v1.3h-12.3c0,2.3,0.6,4.1,1.6,5.4c1.1,1.2,2.6,1.8,4.6,1.8c1,0,1.8-0.1,2.6-0.2
			c0.7-0.1,1.7-0.4,2.8-0.9v1.4c-1,0.4-1.8,0.7-2.7,0.9C153.7,210.6,152.8,210.7,151.9,210.7z M151.4,194.4c-1.6,0-3,0.5-3.9,1.6
			s-1.6,2.6-1.7,4.7h10.5c0-2-0.4-3.5-1.3-4.6S152.9,194.4,151.4,194.4z"/>
		<path class="st1" d="M187.9,210.3h-1.6V199h-13.4v11.3h-1.6v-22.9h1.6v10.2h13.4v-10.2h1.6V210.3z"/>
		<path class="st1" d="M200.9,210.7c-2.5,0-4.4-0.8-5.8-2.3s-2.1-3.7-2.1-6.4c0-2.7,0.7-4.9,2-6.5s3.1-2.5,5.4-2.5
			c2,0,3.6,0.7,4.7,2.1c1.2,1.4,1.7,3.3,1.7,5.7v1.3h-12.3c0,2.3,0.6,4.1,1.6,5.4c1.1,1.2,2.6,1.8,4.6,1.8c1,0,1.8-0.1,2.6-0.2
			c0.7-0.1,1.7-0.4,2.8-0.9v1.4c-1,0.4-1.8,0.7-2.7,0.9C202.8,210.6,201.9,210.7,200.9,210.7z M200.4,194.4c-1.6,0-3,0.5-3.9,1.6
			c-1,1.1-1.6,2.6-1.7,4.7h10.5c0-2-0.4-3.5-1.3-4.6C203.1,194.9,201.9,194.4,200.4,194.4z"/>
		<path class="st1" d="M217.9,193c1.2,0,2.3,0.2,3.2,0.7s1.7,1.2,2.4,2.3h0.1c-0.1-1.3-0.1-2.6-0.1-3.9V186h1.5v24.4h-1l-0.4-2.6
			h-0.1c-1.3,1.9-3.2,2.9-5.6,2.9c-2.4,0-4.1-0.7-5.4-2.2c-1.2-1.5-1.9-3.6-1.9-6.4c0-2.9,0.6-5.2,1.8-6.8S215.5,193,217.9,193z
			 M217.9,194.4c-1.9,0-3.3,0.7-4.2,2s-1.4,3.2-1.4,5.7c0,4.8,1.9,7.2,5.6,7.2c1.9,0,3.3-0.6,4.2-1.7s1.3-3,1.3-5.5v-0.3
			c0-2.6-0.4-4.5-1.3-5.7S219.8,194.4,217.9,194.4z"/>
		<path class="st1" d="M244,193.3v1.1l-3.5,0.2c0.9,1.2,1.4,2.5,1.4,3.9c0,1.6-0.5,3-1.6,4s-2.6,1.5-4.4,1.5c-0.8,0-1.3,0-1.6-0.1
			c-0.6,0.3-1.1,0.7-1.4,1.1c-0.3,0.4-0.5,0.9-0.5,1.4s0.2,0.9,0.6,1.2s1.1,0.4,2.1,0.4h3c1.8,0,3.3,0.4,4.2,1.1
			c1,0.7,1.5,1.9,1.5,3.3c0,1.8-0.7,3.2-2.2,4.2s-3.5,1.5-6.2,1.5c-2.1,0-3.8-0.4-5-1.2c-1.2-0.8-1.8-2-1.8-3.4
			c0-1.2,0.4-2.1,1.1-2.9s1.7-1.3,3-1.6c-0.5-0.2-0.9-0.5-1.2-0.9s-0.5-0.9-0.5-1.4c0-1.1,0.7-2.1,2.2-3c-1-0.4-1.8-1-2.3-1.9
			s-0.8-1.9-0.8-3c0-1.7,0.5-3.1,1.6-4.1s2.5-1.5,4.4-1.5c1.1,0,2,0.1,2.6,0.3h5.3V193.3z M230.2,213.2c0,2.3,1.7,3.5,5.2,3.5
			c4.5,0,6.7-1.4,6.7-4.3c0-1-0.3-1.8-1-2.2c-0.7-0.5-1.8-0.7-3.4-0.7h-2.8C231.8,209.5,230.2,210.8,230.2,213.2z M231.5,198.6
			c0,1.3,0.4,2.3,1.2,3.1c0.8,0.7,1.9,1.1,3.2,1.1c1.4,0,2.5-0.4,3.3-1.1s1.1-1.8,1.1-3.1c0-1.5-0.4-2.5-1.2-3.3s-1.9-1.1-3.3-1.1
			c-1.4,0-2.4,0.4-3.2,1.2C231.9,196.1,231.5,197.2,231.5,198.6z"/>
		<path class="st1" d="M254.4,210.7c-2.5,0-4.4-0.8-5.8-2.3s-2.1-3.7-2.1-6.4c0-2.7,0.7-4.9,2-6.5s3.1-2.5,5.4-2.5
			c2,0,3.6,0.7,4.7,2.1c1.2,1.4,1.7,3.3,1.7,5.7v1.3H248c0,2.3,0.6,4.1,1.6,5.4c1.1,1.2,2.6,1.8,4.6,1.8c1,0,1.8-0.1,2.6-0.2
			c0.7-0.1,1.7-0.4,2.8-0.9v1.4c-1,0.4-1.8,0.7-2.7,0.9C256.3,210.6,255.4,210.7,254.4,210.7z M253.9,194.4c-1.6,0-3,0.5-3.9,1.6
			s-1.6,2.6-1.7,4.7h10.5c0-2-0.4-3.5-1.3-4.6C256.6,194.9,255.4,194.4,253.9,194.4z"/>
		<path class="st1" d="M277,210.3v-11c0-1.7-0.4-3-1.1-3.7c-0.7-0.8-1.8-1.2-3.4-1.2c-2,0-3.5,0.5-4.5,1.5c-0.9,1-1.4,2.7-1.4,5v9.4
			H265V186h1.6v7.8l-0.1,2.2h0.1c0.6-1,1.4-1.8,2.4-2.2s2.2-0.7,3.6-0.7c3.9,0,5.8,2.1,5.8,6.2v11.1H277V210.3z"/>
		<path class="st1" d="M298.1,201.8c0,2.8-0.7,4.9-2,6.5s-3.2,2.3-5.6,2.3c-1.5,0-2.8-0.4-3.9-1.1s-2-1.8-2.6-3.1
			c-0.6-1.3-0.9-2.9-0.9-4.7c0-2.8,0.7-4.9,2-6.5s3.2-2.3,5.5-2.3s4.2,0.8,5.5,2.4C297.5,196.9,298.1,199.1,298.1,201.8z
			 M284.7,201.8c0,2.3,0.5,4.2,1.5,5.5s2.5,2,4.4,2s3.3-0.7,4.4-2s1.5-3.1,1.5-5.5s-0.5-4.2-1.6-5.5c-1-1.3-2.5-1.9-4.4-1.9
			s-3.3,0.6-4.3,1.9S284.7,199.4,284.7,201.8z"/>
		<path class="st1" d="M316.1,193.3v1.1l-3.5,0.2c0.9,1.2,1.4,2.5,1.4,3.9c0,1.6-0.5,3-1.6,4s-2.6,1.5-4.4,1.5c-0.8,0-1.3,0-1.6-0.1
			c-0.6,0.3-1.1,0.7-1.4,1.1s-0.5,0.9-0.5,1.4s0.2,0.9,0.6,1.2s1.1,0.4,2.1,0.4h3c1.8,0,3.3,0.4,4.2,1.1c1,0.7,1.5,1.9,1.5,3.3
			c0,1.8-0.7,3.2-2.2,4.2s-3.5,1.5-6.2,1.5c-2.1,0-3.8-0.4-5-1.2c-1.2-0.8-1.8-2-1.8-3.4c0-1.2,0.4-2.1,1.1-2.9s1.7-1.3,3-1.6
			c-0.5-0.2-0.9-0.5-1.2-0.9s-0.5-0.9-0.5-1.4c0-1.1,0.7-2.1,2.2-3c-1-0.4-1.8-1-2.3-1.9s-0.8-1.9-0.8-3c0-1.7,0.5-3.1,1.6-4.1
			s2.5-1.5,4.4-1.5c1.1,0,2,0.1,2.6,0.3h5.3V193.3z M302.3,213.2c0,2.3,1.7,3.5,5.2,3.5c4.5,0,6.7-1.4,6.7-4.3c0-1-0.3-1.8-1-2.2
			c-0.7-0.5-1.8-0.7-3.4-0.7H307C303.9,209.5,302.3,210.8,302.3,213.2z M303.6,198.6c0,1.3,0.4,2.3,1.2,3.1s1.9,1.1,3.2,1.1
			c1.4,0,2.5-0.4,3.3-1.1s1.1-1.8,1.1-3.1c0-1.5-0.4-2.5-1.2-3.3c-0.8-0.7-1.9-1.1-3.3-1.1s-2.4,0.4-3.2,1.2
			C304,196.1,303.6,197.2,303.6,198.6z"/>
		<path class="st1" d="M330.2,205.9c0,1.5-0.6,2.7-1.7,3.5c-1.2,0.8-2.8,1.2-4.9,1.2c-2.3,0-4.1-0.3-5.4-1v-1.7
			c1.7,0.9,3.5,1.3,5.4,1.3c1.7,0,3-0.3,3.8-0.8c0.9-0.6,1.3-1.3,1.3-2.2c0-0.9-0.3-1.6-1-2.2s-1.8-1.2-3.4-1.7
			c-1.7-0.6-2.9-1.1-3.6-1.6c-0.7-0.4-1.2-0.9-1.6-1.5s-0.5-1.2-0.5-2c0-1.3,0.5-2.3,1.6-3s2.6-1.1,4.5-1.1c1.8,0,3.6,0.3,5.2,1
			l-0.6,1.4c-1.7-0.7-3.2-1-4.7-1c-1.4,0-2.5,0.2-3.3,0.7s-1.2,1.1-1.2,1.9c0,0.9,0.3,1.6,0.9,2.1s1.9,1.1,3.7,1.8
			c1.5,0.6,2.7,1.1,3.4,1.5c0.7,0.4,1.2,0.9,1.6,1.5C330,204.5,330.2,205.1,330.2,205.9z"/>
	</g>
</g>
</svg>
